<?xml version="1.0" encoding="UTF-8"?>
<svg xmlns="http://www.w3.org/2000/svg" version="1.2" baseProfile="tiny-ps" viewBox="0 0 512 512" width="512" height="512">
 <title>Club Padel Montornes</title>
 <desc>Official logo for Club Padel Montornes.</desc>
 <path d="m244.84 465.9c-56.446-22.77-101.31-54.618-131.07-93.057-27.374-35.348-41.977-67.473-48.575-106.86-1.5395-9.1914-1.8027-19.853-2.1387-86.659l-0.38317-76.178 5.3117-4.2284c15.056-11.985 41.628-26.446 63.258-34.426 30.633-11.301 66.564-18.855 102.05-21.456 18.975-1.3904 32.731-1.2774 53.5 0.4395 63.777 5.2721 123.48 25.757 160.25 54.985l5.75 4.5704-3e-3 68.235c-3e-3 67.392-0.5266 82.014-3.579 100.01-10.784 63.591-54.726 124.63-118.58 164.71-13.578 8.5237-42.98 23.224-59.565 29.781-7.276 2.8768-13.351 5.2138-13.5 5.1932-0.14902-0.0205-5.8751-2.2979-12.725-5.0609zm28.827-15.969c35.671-14.797 69.332-35.706 90.911-56.47l8.7152-8.3862-231.43-0.0764 8.6922 8.1875c17.418 16.406 46.721 35.949 72.468 48.33 12.843 6.1757 32.505 14.37 34.646 14.439 0.75558 0.0242 7.9556-2.6862 16-6.0232zm-141.82-86.183 0.0554-10.25 2.5774 6.8022c2.1694 5.7254 2.9125 6.7543 4.6946 6.5 1.6268-0.23216 2.6963-1.9236 4.6172-7.3022l2.5-7 0.5689 21.622 6.4311-0.62158 0.27387-17.309 0.27386-17.309-8.5029 0.61733-6.3199 16.974-1.4392-3.487c-0.79155-1.9178-2.281-5.8495-3.31-8.737-1.812-5.0849-1.9904-5.25-5.6732-5.25h-3.8025v35h7zm47.928 7.4201c2.1679-2.1679 2.9983-4.1779 3.5499-8.5926 0.80796-6.4667 0.0336-15.238-1.6765-18.992-2.8706-6.3002-14.08-7.2575-19.107-1.6317-2.6312 2.9446-2.75 3.5326-2.75 13.611 0 15.28 1.9714 18.348 11.827 18.404 4.5361 0.0259 5.747-0.3897 8.1568-2.7994zm-11.949-5.1044c-0.56935-1.0638-1.0352-5.5934-1.0352-10.066 0-9.1418 1.0326-12 4.3352-12 3.9632 0 4.6648 1.8049 4.6648 12 0 6.1333-0.43333 10.033-1.2 10.8-1.8371 1.8371-5.6077 1.4279-6.7648-0.73426zm29.039-1.8157 0.0744-9.75 9.1478 19.5h7.7034v-35h-8l-0.1488 19.5-4.5739-9.75c-4.4493-9.4842-4.6653-9.75-7.9256-9.75h-3.3517v35h7zm36.926-4.75v-14.5h3.5c3.2222 0 3.5-0.2381 3.5-3v-3h-23v3c0 2.8333 0.22222 3 4 3h4v29h8zm31.331 12.455c3.2699-2.5721 4.6627-7.5093 4.6418-16.455-0.0229-9.8006-2.4541-14.965-7.7988-16.566-5.1878-1.5543-10.257-0.5379-13.264 2.6594-2.1726 2.3103-2.4437 3.5959-2.7529 13.053-0.50809 15.54 1.7443 19.354 11.431 19.354 3.6666 0 5.889-0.58711 7.743-2.0455zm-11.296-5.8888c-1.1159-2.0851-1.3944-15.123-0.40203-18.827 0.71774-2.6785 4.7598-3.9877 6.8798-2.2283 1.1209 0.93023 1.487 3.523 1.487 10.53 0 5.1127-0.27314 10.008-0.60699 10.878-0.88015 2.2936-6.0748 2.0448-7.3578-0.35247zm29.965 1.3609c0-5.5183 0.25926-6.5214 1.6153-6.25 0.90465 0.18107 2.7421 3.073 4.1765 6.5733 2.5122 6.1303 2.6344 6.25 6.3847 6.25 2.1029 0 3.8235-0.21609 3.8235-0.4802s-1.2044-3.413-2.6765-6.9976l-2.6765-6.5175 2.1765-2.3168c1.7001-1.8097 2.1765-3.5418 2.1765-7.9135 0-5.0219-0.31597-5.8625-3.0767-8.1856-2.7771-2.3368-3.897-2.5889-11.5-2.5889h-8.4233v35h8zm0-16.927c0-5.3571 0.0727-5.5 2.8-5.5 3.6879 0 5.2 1.6647 5.2 5.7248 0 2.6488-0.52153 3.523-2.5651 4.3-4.8844 1.857-5.4349 1.3987-5.4349-4.5248zm30.088 13.25 0.0885-10.25 4.9294 10.25c4.8543 10.094 4.9825 10.25 8.4115 10.25h3.4821v-35h-7l-0.172 20.5-4.8905-10.25c-4.8358-10.135-4.9299-10.25-8.414-10.25h-3.5235v35h7zm44.912 7.25v-3h-12v-9h5c4.8889 0 5-0.0667 5-3 0-2.9333-0.11111-3-5-3h-5v-8h12v-6h-20v35h20zm24.02 1.4896c3.5234-1.822 4.98-4.3052 4.98-8.4896 0-4.9244-1.5802-6.7635-9.039-10.52-7.1493-3.6003-8.6221-5.8569-5.5091-8.4405 2.0628-1.712 4.8796-0.91107 6.0352 1.716 0.73252 1.6653 1.8287 2.2442 4.25 2.2442 2.7287 0 3.2629-0.37284 3.2629-2.2775 0-7.9873-13.299-11.515-19.612-5.2017-2.8387 2.8387-3.2365 8.8232-0.81615 12.279 0.86467 1.2345 4.2676 3.6052 7.562 5.2682 5.3295 2.6903 5.9555 3.3218 5.6779 5.728-0.27281 2.3645-0.75175 2.7043-3.812 2.7043-2.6705 0-3.734-0.53326-4.4871-2.25-1.2713-2.8978-7.5345-3.3166-7.4774-0.5 0.0548 2.7073 2.4351 6.3915 5.0746 7.8545 3.2322 1.7914 10.337 1.7328 13.91-0.11484zm-29.612-37.99c-1.2224-1.8656-2.5119-2.5-5.0821-2.5-3.4545 0-3.5855 0.46879-1.0478 3.75 0.53171 0.6875 2.497 1.25 4.3674 1.25 3.3975 0 3.3991-2e-3 1.7625-2.5zm-12.588-7.4778 76.32-0.0222 4.8082-10.25c7.5121-16.014 11.999-30.443 15.78-50.75 1.5901-8.5396 1.7691-16.971 1.7709-83.403l2e-3 -73.903-8.5-5.831c-17.945-12.31-45.691-24.905-71-32.229-74.807-21.649-153.42-19.17-225.46 7.1099-13.713 5.0025-37.121 16.82-48.539 24.505l-9.5 6.3942v74.929c0 67.354 0.17846 75.889 1.7653 84.429 3.4123 18.363 10.204 39.083 17.639 53.81l2.8725 5.69 82.862-0.22781c45.574-0.12529 117.21-0.23779 159.18-0.25zm-82.511-3.5133-3.4911-3.4911 3.0533-3.8551c5.0254-6.3451 5.8403-6.7739 8.4082-4.4244 1.2214 1.1175 3.2332 2.3389 4.4707 2.7142 2.8162 0.85404 2.8775 3.4801 0.1617 6.9327-1.8675 2.3742-6.7515 5.6149-8.462 5.6149-0.35731 0-2.2206-1.571-4.1408-3.4911zm-22.187-1.8843c-4.6823-4.7709-5.3665-8.7714-1.6223-9.4859 2.845-0.54294 5.9992-3.3114 23.744-20.839 17.98-17.76 21.14-22.696 24.67-38.532 1.1364-5.0972 3.229-14.603 4.6503-21.125 5.5255-25.354 11.813-38.947 23.436-50.667 8.4097-8.48 16.244-13.115 26.093-15.436 33.869-7.9836 64.384 15.988 64.233 50.46-0.10833 24.628-18.44 46.17-46.715 54.895-3.7894 1.1694-14.814 3.2583-24.5 4.6421-27.96 3.9947-37.991 6.8546-47.908 13.659-2.586 1.7742-12.536 10.781-22.112 20.015-9.5755 9.2339-17.919 16.789-18.542 16.789s-3.0641-1.9689-5.4258-4.3754zm68.801-51.697c5.7329-1.6102 11.47-2.9276 12.75-2.9276 2.8869 0 3.0499-1.6356 0.25148-2.5238-2.9129-0.92453-16.021-14.289-18.402-18.762-1.0876-2.043-2.2182-3.7146-2.5125-3.7146-0.2943 0-1.3882 3.0375-2.4309 6.75-1.7677 6.2937-7.2993 22.525-9.0353 26.512-0.69886 1.6051-0.33353 1.5763 4.0944-0.32243 2.674-1.1466 9.5523-3.4022 15.285-5.0124zm49.577-21.428c0-2.5108-0.43746-3.0505-2.6827-3.3099-1.9117-0.22086-3.0094 0.30049-3.8194 1.8139-1.5165 2.8336 0.41838 5.2032 3.9165 4.7966 2.1394-0.2487 2.5856-0.81824 2.5856-3.3006zm-12.096-7.806c2.5497-1.8644 1.7646-6.0992-1.2089-6.5207-4.423-0.62702-6.6542 3.2247-3.6235 6.2553 1.9097 1.9097 2.5366 1.9441 4.8324 0.2654zm23.596-3.194c0-4.2963-4.9615-5.309-7.0344-1.4358-0.784 1.4649-0.55139 2.35 1.0344 3.9358 2.5903 2.5903 6 1.1696 6-2.5zm-33.545-9.3591c1.2776-4.0255-1.9584-7.0123-5.5277-5.1021-1.9884 1.0642-2.3739 2.6344-1.3206 5.3794 0.87763 2.2871 6.1015 2.0755 6.8483-0.27733zm22.355-1.3236c0.43454-3.7613-3.144-5.7299-5.8931-3.242-3.3542 3.0356-1.5145 6.7542 3.0762 6.2177 1.8835-0.22011 2.5841-0.9602 2.817-2.9757zm22.15 1.7307c1.4507-1.748 0.5567-5.1357-1.5707-5.952-3.4881-1.3385-7.3251 4.1351-4.7228 6.7374 1.1884 1.1884 5.056 0.70575 6.2935-0.78534zm-55.505-11.407c1.2776-4.0255-1.9584-7.0123-5.5277-5.1021-1.8546 0.99254-2.6403 4.9151-1.2609 6.2946 1.4752 1.4752 6.2056 0.64431 6.7886-1.1924zm22.374 0.10912c1.1581-2.2518 0.50289-4.0016-2-5.3412-1.5555-0.83247-2.4191-0.68538-3.9128 0.66644-1.0542 0.95408-1.9168 2.25-1.9168 2.8797 0 3.4359 6.2489 4.8686 7.8297 1.795zm22.13 0.29799c1.4507-1.748 0.5567-5.1357-1.5707-5.952-3.4881-1.3385-7.3251 4.1351-4.7228 6.7374 1.1884 1.1884 5.056 0.70575 6.2935-0.78534zm22.85-1.7307c0.54879-4.7503-5.9115-6.2233-7.3545-1.6769-0.8582 2.7039 1.3584 5.0206 4.459 4.6602 1.9667-0.22861 2.6598-0.94274 2.8955-2.9833zm-56.009-10.903c0.57222-4.9226-5.8418-6.5106-7.332-1.8153-0.86984 2.7406 1.3272 5.0639 4.4459 4.7014 1.9388-0.22537 2.6608-0.94741 2.8862-2.8862zm22.16 1.6336c2.7134-3.2694-2.2387-8.2216-5.5082-5.5082-1.4911 1.2375-1.9737 5.1051-0.78534 6.2935 1.1884 1.1884 5.056 0.70575 6.2935-0.78534zm22.65-1.1326c0.82221-3.2759-1.5234-5.8952-4.4479-4.967-4.5426 1.4418-3.377 7.5516 1.4407 7.5516 1.7023 0 2.539-0.71907 3.0072-2.5846zm-33.225-10.651c0.85712-1.369 0.63988-2.1832-1.0273-3.8504-1.7518-1.7518-2.4781-1.9196-4.2361-0.97871-2.0587 1.1018-2.9008 4.9528-1.4092 6.4444 1.2358 1.2358 5.5399 0.19391 6.6727-1.6153zm22.425-0.94664c0.54879-4.7503-5.9115-6.2233-7.3545-1.6769-0.8582 2.7039 1.3584 5.0206 4.459 4.6602 1.9667-0.22861 2.6598-0.94274 2.8955-2.9833zm-12.381-8.3887c3.0307-3.0307 0.79951-6.8824-3.6235-6.2553-2.6489 0.3755-3.67 4.0796-1.7594 6.3818 1.557 1.8761 3.4242 1.8322 5.3829-0.12647zm7.0714 127.43c-6.6328-3.7432-10.209-10.266-9.0419-16.489l0.65621-3.4979 2.223 3.2986c1.6593 2.4622 3.9486 3.9363 9.0279 5.8131 7.2556 2.681 8.9497 4.4434 8.4488 8.7899-0.2849 2.4723-0.7305 2.7472-4.814 2.9694-2.475 0.13467-5.4-0.26306-6.5-0.88384zm13.458-5.1441c-1.5022-4.3456-2.7115-5.2329-12.592-9.2398-6.0386-2.4488-8.5837-8.2418-5.0815-11.566 6.8513-6.5029 18.744-4.8335 23.721 3.3297 3.5926 5.8924 2.3025 15.456-2.6952 19.978-1.8211 1.6481-1.9512 1.551-3.3524-2.5024zm-140.96-7.3236c-4.8498-4.8668-14.573-12.164-19.628-14.731-4.9841-2.5306-16.596-5.4456-34.448-8.6476-19.25-3.4528-27.63-5.8565-37.657-10.802-14.883-7.3405-27.064-20.587-31.396-34.141-4.4656-13.971-2.1075-31.248 5.9569-43.644 20.217-31.078 63.429-32.611 85.841-3.044 9.6311 12.706 15.011 27.913 19.815 56.013 4.3514 25.452 7.5914 33.332 19.405 47.196l6.8955 8.0922-4.8269 4.1578c-2.6548 2.2868-4.9684 4.1374-5.1413 4.1124-0.17293-0.025-2.3394-2.0776-4.8144-4.5613zm-14.773-28.574c-1.0827-2.9254-3.221-11.059-4.7519-18.074l-2.7834-12.755-2.4996 3.7552c-4.8821 7.3345-11.514 14.413-17.377 18.548l-5.9442 4.192 6.2424 1.2634c3.4333 0.69489 11.225 2.9752 17.315 5.0674 6.0898 2.0922 11.229 3.6956 11.42 3.5631 0.19121-0.13244-0.53817-2.6344-1.6208-5.5598zm-56.347-21.595c1.3329-2.4905-0.4358-5.2242-3.38-5.2242-1.3203 0-2.8348 0.77588-3.3655 1.7242-1.375 2.457 0.4232 5.2758 3.3655 5.2758 1.3363 0 2.8573-0.79912 3.38-1.7758zm11.878-11.997c0.20202-0.60606-0.57113-2.0404-1.7181-3.1873-1.6626-1.6626-2.4863-1.8709-4.0625-1.0273-2.4612 1.3172-2.6004 5.535-0.22708 6.8802 1.8378 1.0417 5.2812-0.48615 6.0077-2.6656zm-22.77 0.796c0.84159-1.5725 0.63948-2.3957-0.98773-4.0229s-2.4504-1.8293-4.0229-0.98773c-1.8949 1.0141-2.7058 4.9257-1.3104 6.3211 1.3954 1.3954 5.3069 0.5845 6.3211-1.3104zm11.012-12.523c0-3.5074-3.5522-5.2152-6.0832-2.9247-2.4931 2.2562-2.4237 3.9563 0.2378 5.8205 2.7989 1.9604 5.8454 0.45123 5.8454-2.8957zm-22.083 1.6546c0.71087-1.3283 0.56472-2.4492-0.52152-4-1.8642-2.6615-3.5642-2.7309-5.8205-0.2378-1.3839 1.5292-1.5092 2.3381-0.6198 4 1.3954 2.6073 5.6165 2.7515 6.9618 0.2378zm44.043 0.39338c1.4507-1.748 0.5567-5.1357-1.5707-5.952-3.4881-1.3385-7.3251 4.1351-4.7228 6.7374 1.1884 1.1884 5.056 0.70575 6.2935-0.78534zm-55.043-11.393c0.71087-1.3283 0.56472-2.4492-0.52152-4-1.8642-2.6615-3.5642-2.7309-5.8205-0.2378-1.3839 1.5292-1.5092 2.3381-0.6198 4 1.3954 2.6073 5.6165 2.7515 6.9618 0.2378zm21.893-1.3374c0.43454-3.7613-3.144-5.7299-5.8931-3.242-3.3542 3.0356-1.5145 6.7542 3.0762 6.2177 1.8835-0.22011 2.5841-0.9602 2.817-2.9757zm22.107 1.3374c1.1376-2.1256-1.0995-6.1546-3.4173-6.1546-0.76263 0-2.0657 0.96957-2.8957 2.1546-1.9604 2.7989-0.45123 5.8454 2.8957 5.8454 1.3383 0 2.8732-0.82889 3.4173-1.8454zm22.711-0.8102c0.49098-1.9562 0.1823-3.0097-1.1721-4-1.0112-0.73943-2.1166-1.3444-2.4563-1.3444s-1.4451 0.60498-2.4563 1.3444c-1.3544 0.99034-1.6631 2.0438-1.1721 4 0.53369 2.1264 1.2568 2.6556 3.6284 2.6556s3.0947-0.52921 3.6284-2.6556zm-55.828-11.43c0.36252-3.1187-1.9608-5.3157-4.7014-4.4459-4.6954 1.4902-3.1074 7.9042 1.8153 7.332 1.9388-0.22537 2.6608-0.94741 2.8862-2.8862zm22 0c0.36252-3.1187-1.9608-5.3157-4.7014-4.4459-4.6954 1.4902-3.1074 7.9042 1.8153 7.332 1.9388-0.22537 2.6608-0.94741 2.8862-2.8862zm22.265 0.96377c0.94087-1.758 0.77306-2.4844-0.97871-4.2361-1.6712-1.6712-2.4781-1.8852-3.8504-1.021-1.919 1.2084-2.7026 3.7208-1.8521 5.9374 0.85384 2.2251 5.3725 1.765 6.6812-0.68024zm-33.255-12.061c0.54879-4.7503-5.9115-6.2233-7.3545-1.6769-0.8582 2.7039 1.3584 5.0206 4.459 4.6602 1.9667-0.22861 2.6598-0.94274 2.8955-2.9833zm22 0c0.43454-3.7613-3.144-5.7299-5.8931-3.242-3.3542 3.0356-1.5145 6.7542 3.0762 6.2177 1.8835-0.22011 2.5841-0.9602 2.817-2.9757zm-11.381-8.3887c1.8591-1.8591 1.875-1.9928 0.53625-4.4943-1.3904-2.598-5.5869-2.5089-7.0093 0.14893-0.88943 1.6619-0.76408 2.4708 0.6198 4 2.1067 2.3279 3.7725 2.4262 5.8533 0.34538zm66.756 72.899c-0.53297-1.0052-2.1486-8.5776-3.5902-16.828s-3.274-17.7-4.072-21c-0.94636-3.9135-1.4756-11.738-1.522-22.5-0.0532-12.364-0.42926-17.127-1.5002-19-0.85967-1.5038-1.4432-5.3457-1.4646-9.6416-0.0339-6.8307 0.0754-7.1694 2.5106-7.7806 3.3819-0.84881 4.7415 0.13814 4.1868 3.0394-0.50597 2.6468-0.0317 2.8271 3.7021 1.4075 2.0885-0.79405 2.5651-1.6347 2.5651-4.5248 0-2.9201 0.47018-3.7283 2.6515-4.5576 4.2038-1.5983 7.7529 0.0929 8.3485 3.978 0.38532 2.5134 1.2454 3.5736 3.75 4.6222l3.25 1.3608v-6.9092l3.25 1.3223c2.5383 1.0328 3.3595 2.0494 3.75 4.6429 0.34084 2.2636 1.2162 3.584 2.75 4.1483 1.9491 0.71709 2.25 0.49778 2.25-1.64 0-2.6819 1.787-3.1873 5.0657-1.4326 1.6197 0.86685 1.9343 2.1353 1.9343 7.8 0 3.7206-0.48886 7.2537-1.0863 7.8512-1.5901 1.5901-0.82245 25.514 0.83634 26.065 0.95606 0.3176 1.25 6.356 1.25 25.678v25.263l-21.189-5.0254-7.1556 2.2993c-3.9356 1.2646-7.6836 2.4994-8.329 2.744-0.64532 0.24458-1.6094-0.3777-2.1423-1.3829zm24.395-22.578c-0.69923-11.153-1.394-13.601-3.4922-12.304-1.6146 0.99787-1.4635 22.235 0.16287 22.892 3.8998 1.5736 4.0599 1.0645 3.3293-10.588zm-0.57932-41.628c0-5.677-0.40678-8.2152-1.4562-9.0861-2.6052-2.1621-3.5438-0.0813-3.5438 7.856 0 8.2758 0.28923 9.1076 3.1667 9.1076 1.6226 0 1.8333-0.90538 1.8333-7.8776zm-136.79-53.076c-3.818-0.93996-6.8334-3.419-8.8114-7.244-2.1834-4.2222-1.9295-26.257 0.35393-30.717 3.2153-6.2804 12.112-8.8399 19.703-5.6683 4.0052 1.6734 6.4148 5.0025 7.2222 9.9778l0.58513 3.6058h-4.424c-4.1283 0-4.488-0.21726-5.3808-3.25-0.78459-2.665-1.5245-3.3051-4.1107-3.5562-5.0469-0.48997-6.3461 2.3687-6.3461 13.964 0 13.673 1.5842 16.917 7.5326 15.424 1.7819-0.44724 2.7036-1.5121 3.1228-3.6078 0.55082-2.7541 0.91728-2.9733 4.9697-2.9733 3.777 0 4.375 0.28687 4.375 2.0989 0 3.4769-3.0994 8.9012-5.9194 10.359-3.669 1.8973-8.962 2.5502-12.872 1.5877zm61.434-0.023c-1.5716-0.49917-3.7712-1.7211-4.888-2.7153-4.0251-3.5834-4.7545-7.3843-4.7545-24.776v-16.532h9v16.5c0 15.167 0.16162 16.662 2 18.5 2.4958 2.4958 6.173 2.5713 8.345 0.17126 1.4007-1.5477 1.655-4.3905 1.655-18.5v-16.671h9v17.099c0 19.013-0.90124 22.764-6.1176 25.462-3.6842 1.9052-10.607 2.6161-14.24 1.4623zm-36.643-22.023v-22h9v36h14v8h-23zm64 0v-22h10.865c9.379 0 11.216 0.27569 13.428 2.0156 5.2737 4.1483 5.64 13.02 0.72138 17.472-1.868 1.6905-1.8449 1.7843 1.0376 4.2098 2.5667 2.1598 2.9482 3.1521 2.9482 7.6694 0 9.8206-4.2195 12.634-18.95 12.634h-10.05zm19.108 12.859c0.47355-0.7474 0.8679-2.8056 0.87632-4.5737 0.018-3.7716-2.1068-5.2852-7.419-5.2852h-3.5657v12.26l4.6237-0.52115c2.543-0.28664 5.0111-1.1327 5.4847-1.88zm-0.55132-19.306c1.3786-2.1039 1.4158-2.8395 0.26558-5.25-1.1085-2.3231-2.0643-2.856-5.5801-3.1108l-4.2425-0.3075v11.115h3.977c3.1155 0 4.3242-0.52998 5.5801-2.4467zm33.443 6.4467v-22h22.2l3.4 3.4c3.1295 3.1295 3.4 3.8893 3.4 9.5497 0 10.768-4.1116 15.05-14.45 15.05h-5.5497v16h-9zm17.777-2.5567c1.646-1.1529 2.2225-2.5611 2.2225-5.4286 0-4.9564-2.075-7.0147-7.0714-7.0147h-3.9286v6.3333c0 3.4833 0.3 6.6333 0.66667 7 1.2056 1.2056 5.8459 0.6964 8.1108-0.89003zm18.971 3.8067c2.9552-11.412 5.5566-21.312 5.7809-22 0.27004-0.82786 2.5759-1.25 6.8278-1.25h6.4201l0.6317 3.3673c0.56661 3.0203 8.8195 34.551 10.177 38.883 0.47141 1.504-0.14374 1.75-4.3768 1.75h-4.9253l-0.89655-4.25-0.89656-4.25h-12.982l-0.89656 4.25-0.89655 4.25h-9.3404zm16.264 3.5c0.0244-2.3822-3.3815-15.75-4.0128-15.75s-4.0372 13.368-4.0128 15.75c8e-3 0.78953 1.4863 1.25 4.0128 1.25s4.0047-0.46047 4.0128-1.25zm19.987-4.75v-22h9.5957c16.13 0 19.405 3.6643 19.403 21.71-2e-3 12.386-1.3565 16.319-6.8963 20.02-2.9278 1.9559-4.6918 2.2699-12.75 2.2699h-9.3521zm18 12c1.7345-1.7345 2-3.3333 2-12.045 0-9.3322-0.17428-10.22-2.4546-12.5-1.5314-1.5314-3.5999-2.4546-5.5-2.4546h-3.0454v29h3.5c2.1667 0 4.2619-0.7619 5.5-2zm18-12v-22h24v7h-15v11h13v7h-13v11h15v8h-24zm30 0v-22h9v36h14v8h-23zm-94-30.762c-3.6134-5.4022-3.6156-5.3921 1.1327-5.0502 3.952 0.28457 4.5506 0.69354 6.6791 4.5626l2.338 4.25-3.8249-0.0124c-3.299-0.0107-4.1687-0.52632-6.3249-3.75z" fill="#0f5e2e"/>
</svg>
