<?xml version="1.0" encoding="UTF-8" standalone="no"?>
<!-- Created with Inkscape (http://www.inkscape.org/) -->

<svg
   version="1.1"
   id="svg1"
   width="512"
   height="512"
   viewBox="0 0 512 512"
   sodipodi:docname="icon.svg"
   inkscape:version="1.4.2 (f4327f4, 2025-05-13)"
   xmlns:inkscape="http://www.inkscape.org/namespaces/inkscape"
   xmlns:sodipodi="http://sodipodi.sourceforge.net/DTD/sodipodi-0.dtd"
   xmlns="http://www.w3.org/2000/svg"
   xmlns:svg="http://www.w3.org/2000/svg">
  <defs
     id="defs1" />
  <sodipodi:namedview
     id="namedview1"
     pagecolor="#ffffff"
     bordercolor="#000000"
     borderopacity="0.25"
     inkscape:showpageshadow="2"
     inkscape:pageopacity="0.0"
     inkscape:pagecheckerboard="0"
     inkscape:deskcolor="#d1d1d1"
     showgrid="false"
     inkscape:zoom="1.1145218"
     inkscape:cx="118.43644"
     inkscape:cy="262.44439"
     inkscape:window-width="1920"
     inkscape:window-height="1009"
     inkscape:window-x="-8"
     inkscape:window-y="-8"
     inkscape:window-maximized="1"
     inkscape:current-layer="g1" />
  <g
     inkscape:groupmode="layer"
     inkscape:label="Image"
     id="g1">
    <path
       style="fill:#0f5e2e;fill-opacity:1"
       d="M 244.84083,465.90178 C 188.39484,443.13212 143.53525,411.28364 113.7675,372.84508 86.393273,337.49722 71.790733,305.37162 65.192903,265.98094 c -1.53954,-9.19143 -1.80267,-19.85344 -2.13871,-86.65889 l -0.38317,-76.17794 5.31173,-4.22843 c 15.05557,-11.985062 41.628297,-26.446392 63.257637,-34.425892 30.63314,-11.30118 66.56398,-18.85527 102.0541,-21.4558 18.97463,-1.39037 32.73082,-1.27736 53.5,0.4395 63.77695,5.27206 123.47827,25.7569 160.25,54.985312 l 5.75,4.57045 -0.003,68.23537 c -0.003,67.39232 -0.5266,82.0136 -3.57897,100.01224 -10.78436,63.59119 -54.72597,124.62659 -118.58174,164.71138 -13.57834,8.52366 -42.97967,23.22371 -59.56492,29.78123 -7.27598,2.87679 -13.35098,5.21376 -13.5,5.19325 -0.14902,-0.0205 -5.8751,-2.29792 -12.72461,-5.06094 z m 28.82745,-15.96905 c 35.67061,-14.79694 69.33202,-35.70605 90.91097,-56.47022 l 8.71524,-8.38617 -115.71624,-0.0382 -115.71624,-0.0382 8.69219,8.18751 c 17.41773,16.40645 46.72094,35.94902 72.46837,48.32982 12.84306,6.17566 32.5053,14.36989 34.64571,14.43858 0.75558,0.0242 7.95558,-2.68618 16,-6.02318 z M 131.84993,363.75 l 0.0554,-10.25 2.57736,6.80215 c 2.16938,5.7254 2.9125,6.75432 4.69456,6.5 1.62679,-0.23216 2.69628,-1.92356 4.6172,-7.30215 l 2.5,-7 0.28445,10.81079 0.28445,10.81079 3.21555,-0.31079 3.21559,-0.31079 0.27387,-17.30866 0.27386,-17.30867 -4.25146,0.30867 -4.25146,0.30866 -3.15997,8.48698 -3.15997,8.48697 -1.43919,-3.48697 c -0.79155,-1.91784 -2.28104,-5.84948 -3.30998,-8.73698 -1.81195,-5.08488 -1.99038,-5.25 -5.67324,-5.25 h -3.80246 v 17.5 17.5 h 3.5 3.5 z m 47.92827,7.42014 c 2.16788,-2.16788 2.99829,-4.17794 3.54987,-8.59262 0.80796,-6.46671 0.0336,-15.23847 -1.67646,-18.99176 -2.87055,-6.30017 -14.0801,-7.25746 -19.10712,-1.63173 -2.63119,2.94456 -2.75,3.53263 -2.75,13.61141 0,15.28009 1.97144,18.34789 11.82692,18.40415 4.53612,0.0259 5.74703,-0.3897 8.15679,-2.79945 z m -11.94853,-5.1044 c -0.56935,-1.06384 -1.03518,-5.59342 -1.03518,-10.06574 0,-9.14179 1.03257,-12 4.33518,-12 3.9632,0 4.66482,1.80488 4.66482,12 0,6.13333 -0.43333,10.03333 -1.2,10.8 -1.83712,1.83712 -5.60769,1.42786 -6.76482,-0.73426 z m 29.03924,-1.81574 0.0744,-9.75 4.57391,9.75 4.57392,9.75 h 3.85169 3.85166 V 356.5 339 h -4 -4 l -0.0744,9.75 -0.0744,9.75 -4.57391,-9.75 C 196.6225,339.26578 196.40645,339 193.14615,339 h -3.35166 v 17.5 17.5 h 3.5 3.5 z m 36.92558,-4.75 V 345 h 3.5 c 3.22222,0 3.5,-0.2381 3.5,-3 v -3 h -11.5 -11.5 v 3 c 0,2.83333 0.22222,3 4,3 h 4 v 14.5 14.5 h 4 4 z m 31.3307,12.45451 c 3.26994,-2.57213 4.6627,-7.50932 4.64176,-16.45451 -0.0229,-9.80061 -2.45407,-14.96479 -7.79878,-16.56611 -5.1878,-1.5543 -10.25702,-0.5379 -13.26375,2.65945 -2.17258,2.31032 -2.44371,3.59589 -2.75292,13.05308 C 245.44341,370.18635 247.69583,374 257.38214,374 c 3.66656,0 5.88902,-0.58711 7.74305,-2.04549 z m -11.29552,-5.88877 c -1.11593,-2.08513 -1.39435,-15.12341 -0.40203,-18.82668 0.71774,-2.67854 4.75984,-3.98772 6.87984,-2.22828 1.12086,0.93023 1.48701,3.523 1.48701,10.52988 0,5.11267 -0.27314,10.00757 -0.60699,10.87755 -0.88015,2.29364 -6.07485,2.0448 -7.35783,-0.35247 z m 29.96482,1.36094 c 0,-5.5183 0.25926,-6.52143 1.61532,-6.25 0.90465,0.18107 2.74212,3.07303 4.17651,6.57332 2.51215,6.13034 2.63439,6.25 6.38468,6.25 2.10292,0 3.82349,-0.21609 3.82349,-0.4802 0,-0.26411 -1.20443,-3.41305 -2.67652,-6.99765 l -2.67652,-6.51746 2.17652,-2.31679 c 1.70012,-1.8097 2.17652,-3.5418 2.17652,-7.91346 0,-5.02189 -0.31597,-5.86253 -3.07673,-8.18555 -2.7771,-2.33678 -3.897,-2.58889 -11.5,-2.58889 h -8.42327 v 17.5 17.5 h 4 4 z m 0,-16.92668 c 0,-5.35714 0.0727,-5.5 2.8,-5.5 3.6879,0 5.2,1.6647 5.2,5.72475 0,2.64877 -0.52153,3.52304 -2.5651,4.3 -4.88435,1.85703 -5.4349,1.39867 -5.4349,-4.52475 z m 30.08847,13.25 0.0885,-10.25 4.92943,10.25 c 4.85432,10.09381 4.98249,10.25 8.41153,10.25 h 3.48207 V 356.5 339 h -3.5 -3.5 l -0.086,10.25 -0.086,10.25 -4.89049,-10.25 C 313.89624,339.11465 313.80213,339 310.31802,339 h -3.52353 v 17.5 17.5 h 3.5 3.5 z m 44.91153,7.25 v -3 h -6 -6 v -4.5 -4.5 h 5 c 4.88889,0 5,-0.0667 5,-3 0,-2.93333 -0.11111,-3 -5,-3 h -5 v -4 -4 h 6 6 v -3 -3 h -10 -10 v 17.5 17.5 h 10 10 z m 24.02002,1.48965 c 3.52337,-1.82201 4.97998,-4.30517 4.97998,-8.48965 0,-4.92438 -1.58022,-6.76346 -9.03895,-10.51962 -7.14926,-3.60031 -8.62214,-5.85691 -5.50909,-8.44051 2.0628,-1.71197 4.87962,-0.91107 6.03517,1.71597 0.73252,1.66533 1.82871,2.24416 4.25,2.24416 2.72872,0 3.26287,-0.37284 3.26287,-2.27749 0,-7.98732 -13.29881,-11.51461 -19.61173,-5.20169 -2.83871,2.83871 -3.23649,8.82317 -0.81615,12.27869 0.86467,1.23448 4.26757,3.60517 7.56201,5.2682 5.32949,2.69032 5.95549,3.32185 5.67788,5.72799 -0.27281,2.36453 -0.75175,2.7043 -3.81201,2.7043 -2.67048,0 -3.73395,-0.53326 -4.48713,-2.25 -1.27134,-2.89781 -7.53447,-3.31661 -7.47743,-0.5 0.0548,2.70731 2.43511,6.39152 5.07463,7.85449 3.23215,1.79145 10.33703,1.73279 13.90995,-0.11484 z M 353.20253,334.5 c -1.22242,-1.86565 -2.51194,-2.5 -5.08207,-2.5 -3.45451,0 -3.5855,0.46879 -1.04783,3.75 0.53171,0.6875 2.49702,1.25 4.36736,1.25 3.39746,0 3.39909,-0.002 1.76254,-2.5 z m -12.58847,-7.47781 76.31958,-0.0222 4.80822,-10.25 c 7.5121,-16.01401 11.99859,-30.44329 15.77968,-50.75 1.59007,-8.53962 1.7691,-16.97108 1.77092,-83.40303 l 0.002,-73.90302 -8.5,-5.83096 c -17.94478,-12.310012 -45.69075,-24.904832 -71,-32.229252 -74.80669,-21.64884 -153.42172,-19.16973 -225.46142,7.10988 -13.71329,5.00252 -37.121179,16.820092 -48.538577,24.504912 l -9.5,6.39425 v 74.92862 c 0,67.35383 0.17846,75.889 1.76531,84.42861 3.4123,18.36325 10.20413,39.08263 17.638978,53.81004 l 2.87247,5.68996 82.861619,-0.22781 c 45.57389,-0.12529 117.20543,-0.23779 159.18119,-0.25 z m -82.51066,-3.51328 -3.49109,-3.49109 3.05331,-3.8551 c 5.02544,-6.34514 5.84031,-6.77393 8.40819,-4.42443 1.22137,1.11751 3.23318,2.33889 4.47068,2.71416 2.81623,0.85404 2.87749,3.48011 0.1617,6.93267 -1.86753,2.37419 -6.7515,5.61488 -8.46204,5.61488 -0.35731,0 -2.22065,-1.57099 -4.14075,-3.49109 z m -22.18659,-1.88427 c -4.68231,-4.77093 -5.36648,-8.77135 -1.62232,-9.48589 2.84496,-0.54294 5.99923,-3.31135 23.74394,-20.83938 17.9795,-17.75995 21.13957,-22.69559 24.67007,-38.53168 1.13637,-5.09723 3.229,-14.60343 4.65028,-21.1249 5.52553,-25.35356 11.81308,-38.94689 23.43571,-50.66668 8.40974,-8.48004 16.24414,-13.11477 26.09307,-15.43633 33.86943,-7.98359 64.38415,15.98837 64.23253,50.46022 -0.10833,24.62787 -18.44019,46.16961 -46.71533,54.89513 -3.78936,1.16936 -14.81436,3.25832 -24.5,4.64212 -27.95981,3.99466 -37.99116,6.85464 -47.90848,13.6589 -2.58598,1.77424 -12.53631,10.78094 -22.11184,20.01487 C 250.30892,318.44496 241.96511,326 241.34265,326 c -0.62246,0 -3.06409,-1.96891 -5.42584,-4.37536 z m 68.80111,-51.69706 C 310.4508,268.31741 316.1883,267 317.46792,267 c 2.88694,0 3.04992,-1.63564 0.25148,-2.52383 -2.91294,-0.92453 -16.02136,-14.28884 -18.40231,-18.76155 C 298.22951,243.67158 297.09889,242 296.8046,242 c -0.2943,0 -1.38822,3.0375 -2.43094,6.75 -1.76769,6.29372 -7.29928,22.52506 -9.03531,26.51236 -0.69886,1.60511 -0.33353,1.57634 4.09441,-0.32243 2.67395,-1.14663 9.55227,-3.40219 15.28516,-5.01235 z M 354.29449,248.5 c 0,-2.51081 -0.43746,-3.05054 -2.68274,-3.30993 -1.91169,-0.22086 -3.00943,0.30049 -3.8194,1.81392 -1.51649,2.83359 0.41838,5.20321 3.91654,4.79657 2.13943,-0.2487 2.5856,-0.81824 2.5856,-3.30056 z m -12.09616,-7.80603 c 2.54974,-1.86442 1.76465,-6.0992 -1.20888,-6.52073 -4.42304,-0.62702 -6.6542,3.22466 -3.62353,6.25533 1.90971,1.90971 2.53659,1.94414 4.83241,0.2654 z M 365.79449,237.5 c 0,-4.29632 -4.96149,-5.30899 -7.03438,-1.43577 -0.784,1.46492 -0.55139,2.35 1.03438,3.93577 2.5903,2.5903 6,1.16959 6,-2.5 z m -33.54471,-9.35912 c 1.27763,-4.02546 -1.95843,-7.01234 -5.52773,-5.10211 -1.98845,1.06419 -2.37393,2.63444 -1.32057,5.37944 0.87763,2.28708 6.10153,2.07553 6.8483,-0.27733 z m 22.35464,-1.32362 c 0.43454,-3.76129 -3.14397,-5.72992 -5.89312,-3.24198 -3.35423,3.03555 -1.51447,6.75417 3.07617,6.2177 1.8835,-0.22011 2.5841,-0.9602 2.81695,-2.97572 z m 22.15024,1.73073 c 1.45069,-1.74797 0.5567,-5.13567 -1.57068,-5.95202 -3.48812,-1.33852 -7.32508,4.13511 -4.72282,6.73736 1.18837,1.18838 5.05601,0.70575 6.2935,-0.78534 z m -55.50488,-11.40711 c 1.27763,-4.02546 -1.95843,-7.01234 -5.52773,-5.10211 -1.85458,0.99254 -2.64033,4.91513 -1.26089,6.29456 1.47523,1.47523 6.20565,0.64431 6.78862,-1.19245 z m 22.3744,0.10912 c 1.15813,-2.25178 0.50289,-4.00164 -2.00003,-5.34116 -1.55549,-0.83247 -2.4191,-0.68538 -3.91285,0.66644 -1.05424,0.95408 -1.91681,2.24995 -1.91681,2.87971 0,3.43594 6.24891,4.86855 7.82969,1.79501 z m 22.13048,0.29799 c 1.45069,-1.74797 0.5567,-5.13567 -1.57068,-5.95202 -3.48812,-1.33852 -7.32508,4.13511 -4.72282,6.73736 1.18837,1.18838 5.05601,0.70575 6.2935,-0.78534 z m 22.84976,-1.73073 c 0.54879,-4.75027 -5.91152,-6.22328 -7.35448,-1.67689 -0.8582,2.70394 1.35843,5.0206 4.45895,4.66019 1.96668,-0.22861 2.65979,-0.94274 2.89553,-2.9833 z M 332.59505,204.9144 c 0.57222,-4.92264 -5.84178,-6.51062 -7.33203,-1.81526 -0.86984,2.74063 1.32719,5.06394 4.44587,4.70142 1.93875,-0.22537 2.66079,-0.94741 2.88616,-2.88616 z m 22.15961,1.63359 c 2.71341,-3.26945 -2.23871,-8.22157 -5.50816,-5.50816 -1.49109,1.23749 -1.97372,5.10513 -0.78534,6.2935 1.18837,1.18838 5.05601,0.70575 6.2935,-0.78534 z m 22.65043,-1.13263 c 0.82221,-3.27594 -1.52335,-5.89521 -4.44794,-4.96699 -4.54263,1.44178 -3.37696,7.55163 1.44073,7.55163 1.70234,0 2.53898,-0.71907 3.00721,-2.58464 z M 344.17975,194.7639 c 0.85712,-1.36898 0.63988,-2.1832 -1.02731,-3.85039 -1.75177,-1.75177 -2.47809,-1.91958 -4.23612,-0.97871 -2.05871,1.10179 -2.90085,4.95284 -1.40925,6.44444 1.23584,1.23585 5.5399,0.19391 6.67268,-1.61534 z m 22.42467,-0.94664 c 0.54879,-4.75027 -5.91152,-6.22328 -7.35448,-1.67689 -0.8582,2.70394 1.35843,5.0206 4.45895,4.66019 1.96668,-0.22861 2.65979,-0.94274 2.89553,-2.9833 z m -12.38136,-8.38869 c 3.03067,-3.03067 0.79951,-6.88235 -3.62353,-6.25533 -2.64888,0.3755 -3.67004,4.07958 -1.75936,6.3818 1.55704,1.87611 3.42418,1.83225 5.38289,-0.12647 z m 7.07143,127.43244 c -6.63282,-3.74323 -10.20945,-10.26576 -9.04192,-16.48927 l 0.65621,-3.4979 2.22297,3.29865 c 1.65926,2.46218 3.94857,3.93628 9.02786,5.81309 7.25564,2.68097 8.94972,4.44343 8.44884,8.78992 -0.2849,2.47231 -0.7305,2.74716 -4.81396,2.96935 -2.475,0.13467 -5.4,-0.26306 -6.5,-0.88384 z m 13.45778,-5.14406 c -1.50225,-4.34558 -2.71152,-5.23291 -12.59218,-9.23982 -6.03861,-2.44884 -8.58374,-8.24183 -5.08147,-11.566 6.8513,-6.5029 18.74408,-4.83352 23.72127,3.32973 3.59264,5.89239 2.3025,15.45556 -2.69524,19.97845 -1.82111,1.64808 -1.95115,1.55102 -3.35238,-2.50236 z m -140.95778,-7.32363 c -4.84977,-4.86685 -14.57258,-12.16353 -19.62839,-14.73052 -4.98406,-2.53057 -16.59639,-5.44562 -34.44841,-8.64761 -19.25035,-3.4528 -27.62989,-5.85653 -37.65692,-10.80213 -14.88267,-7.34053 -27.06405,-20.5867 -31.39649,-34.14088 -4.46555,-13.97065 -2.10747,-31.24756 5.95691,-43.64431 20.21728,-31.07847 63.42906,-32.61082 85.84112,-3.04404 9.63108,12.70564 15.01068,27.91282 19.81476,56.01277 4.35141,25.45216 7.59135,33.3323 19.40457,47.19558 l 6.89554,8.09218 -4.82694,4.15782 c -2.65481,2.2868 -4.96842,4.13738 -5.14134,4.1124 -0.17293,-0.025 -2.33941,-2.07755 -4.81441,-4.56126 z M 219.02131,271.819 c -1.08268,-2.92545 -3.22103,-11.05883 -4.75188,-18.07418 l -2.78338,-12.75518 -2.49958,3.75518 c -4.88212,7.33453 -11.5141,14.41343 -17.37709,18.54813 l -5.94418,4.19195 6.24237,1.26344 c 3.4333,0.69489 11.22489,2.9752 17.31464,5.06735 6.08976,2.09215 11.22873,3.69555 11.41995,3.56311 0.19121,-0.13244 -0.53817,-2.63435 -1.62085,-5.5598 z m -56.3468,-21.59482 C 164.00739,247.73368 162.23871,245 159.29449,245 c -1.32034,0 -2.83482,0.77588 -3.36552,1.72418 -1.37499,2.45696 0.4232,5.27582 3.36552,5.27582 1.3363,0 2.85731,-0.79912 3.38002,-1.77582 z m 11.87767,-11.99726 c 0.20202,-0.60606 -0.57113,-2.04036 -1.71811,-3.18734 -1.6626,-1.6626 -2.48627,-1.87089 -4.0625,-1.02731 -2.46119,1.31719 -2.6004,5.53505 -0.22708,6.88025 1.83782,1.04167 5.28121,-0.48615 6.00769,-2.6656 z m -22.76996,0.796 c 0.84159,-1.57253 0.63948,-2.39571 -0.98773,-4.02292 -1.62721,-1.62721 -2.45039,-1.82932 -4.02292,-0.98773 -1.89491,1.01412 -2.70581,4.92567 -1.31041,6.32106 1.39539,1.3954 5.30694,0.5845 6.32106,-1.31041 z M 162.79449,226.5 c 0,-3.50742 -3.55217,-5.21525 -6.08319,-2.92472 -2.49312,2.25625 -2.42367,3.95629 0.2378,5.82046 2.7989,1.96042 5.84539,0.45123 5.84539,-2.89574 z m -22.08274,1.65461 c 0.71087,-1.32828 0.56472,-2.44917 -0.52152,-4 -1.86417,-2.66147 -3.56421,-2.73092 -5.82046,-0.2378 -1.38388,1.52918 -1.50923,2.3381 -0.6198,4 1.39539,2.60732 5.61648,2.7515 6.96178,0.2378 z m 44.04291,0.39338 c 1.45069,-1.74797 0.5567,-5.13567 -1.57068,-5.95202 -3.48812,-1.33852 -7.32508,4.13511 -4.72282,6.73736 1.18837,1.18838 5.05601,0.70575 6.2935,-0.78534 z m -55.04291,-11.39338 c 0.71087,-1.32828 0.56472,-2.44917 -0.52152,-4 -1.86417,-2.66147 -3.56421,-2.73092 -5.82046,-0.2378 -1.38388,1.52918 -1.50923,2.3381 -0.6198,4 1.39539,2.60732 5.61648,2.7515 6.96178,0.2378 z m 21.89267,-1.33735 c 0.43454,-3.76129 -3.14397,-5.72992 -5.89312,-3.24198 -3.35423,3.03555 -1.51447,6.75417 3.07617,6.2177 1.8835,-0.22011 2.5841,-0.9602 2.81695,-2.97572 z m 22.10733,1.33735 C 174.84931,215.02906 172.61223,211 170.29449,211 c -0.76263,0 -2.06571,0.96957 -2.89574,2.15461 -1.96042,2.7989 -0.45123,5.84539 2.89574,5.84539 1.33833,0 2.87324,-0.82889 3.41726,-1.84539 z m 22.71115,-0.8102 c 0.49098,-1.95622 0.1823,-3.00966 -1.17208,-4 C 194.2396,211.60498 193.13425,211 192.79449,211 c -0.33976,0 -1.44511,0.60498 -2.45633,1.34441 -1.35438,0.99034 -1.66306,2.04378 -1.17208,4 0.53369,2.12638 1.25677,2.65559 3.62841,2.65559 2.37164,0 3.09472,-0.52921 3.62841,-2.65559 z M 140.59505,204.9144 c 0.36252,-3.11868 -1.96079,-5.31571 -4.70142,-4.44587 -4.69536,1.49025 -3.10738,7.90425 1.81526,7.33203 1.93875,-0.22537 2.66079,-0.94741 2.88616,-2.88616 z m 22,0 c 0.36252,-3.11868 -1.96079,-5.31571 -4.70142,-4.44587 -4.69536,1.49025 -3.10738,7.90425 1.81526,7.33203 1.93875,-0.22537 2.66079,-0.94741 2.88616,-2.88616 z m 22.26464,0.96377 c 0.94087,-1.75803 0.77306,-2.48435 -0.97871,-4.23612 -1.67125,-1.67125 -2.47807,-1.88519 -3.85039,-1.02099 -1.91895,1.20845 -2.70263,3.72079 -1.85206,5.93735 0.85384,2.22506 5.37252,1.76499 6.68116,-0.68024 z m -33.25527,-12.06091 c 0.54879,-4.75027 -5.91152,-6.22328 -7.35448,-1.67689 -0.8582,2.70394 1.35843,5.0206 4.45895,4.66019 1.96668,-0.22861 2.65979,-0.94274 2.89553,-2.9833 z m 22,0 c 0.43454,-3.76129 -3.14397,-5.72992 -5.89312,-3.24198 -3.35423,3.03555 -1.51447,6.75417 3.07617,6.2177 1.8835,-0.22011 2.5841,-0.9602 2.81695,-2.97572 z m -11.38136,-8.38869 c 1.85909,-1.85909 1.87504,-1.99275 0.53625,-4.49431 -1.39042,-2.59802 -5.58694,-2.50886 -7.00934,0.14893 -0.88943,1.6619 -0.76408,2.47082 0.6198,4 2.10672,2.32789 3.77249,2.42618 5.85329,0.34538 z m 66.75578,72.89899 C 228.44587,257.3224 226.83029,249.75 225.38867,241.5 c -1.44162,-8.25 -3.27403,-17.7 -4.07203,-21 -0.94636,-3.91352 -1.47562,-11.73783 -1.52196,-22.5 -0.0532,-12.36439 -0.42926,-17.12661 -1.50019,-19 -0.85967,-1.50383 -1.44325,-5.34568 -1.46456,-9.64159 -0.0339,-6.83074 0.0754,-7.16941 2.51055,-7.7806 3.38193,-0.84881 4.74146,0.13814 4.18685,3.03941 -0.50597,2.6468 -0.0317,2.82711 3.70206,1.40753 2.08852,-0.79405 2.5651,-1.63473 2.5651,-4.52475 0,-2.92008 0.47018,-3.72826 2.65148,-4.55759 4.20377,-1.59827 7.7529,0.0929 8.34852,3.978 0.38532,2.5134 1.24542,3.57355 3.75,4.62224 l 3.25,1.3608 v -3.45459 -3.4546 l 3.25,1.32231 c 2.53833,1.03276 3.35949,2.04943 3.75,4.64286 0.34084,2.26358 1.2162,3.58404 2.75,4.14834 1.94912,0.71709 2.25,0.49778 2.25,-1.63999 0,-2.68193 1.78703,-3.18731 5.06574,-1.4326 1.61971,0.86685 1.93426,2.13528 1.93426,7.8 0,3.72065 -0.48886,7.25368 -1.08634,7.85116 -1.59009,1.59009 -0.82245,25.51402 0.83634,26.06508 0.95606,0.3176 1.25,6.35596 1.25,25.67814 v 25.2629 l -10.59435,-2.51268 -10.59436,-2.51267 -7.15564,2.2993 c -3.93561,1.26462 -7.68364,2.49942 -8.32896,2.74401 -0.64532,0.24458 -1.60937,-0.3777 -2.14234,-1.38286 z M 253.37381,235.75 c -0.69923,-11.15265 -1.39403,-13.60058 -3.49219,-12.30385 -1.61459,0.99787 -1.46349,22.23532 0.16287,22.89157 3.89978,1.57359 4.05987,1.06448 3.32932,-10.58772 z m -0.57932,-41.62756 c 0,-5.677 -0.40678,-8.21515 -1.4562,-9.08609 -2.60516,-2.16209 -3.5438,-0.0813 -3.5438,7.856 0,8.2758 0.28923,9.10765 3.16667,9.10765 1.62262,0 1.83333,-0.90538 1.83333,-7.87756 z M 116.00353,141.04605 c -3.81799,-0.93996 -6.83342,-3.419 -8.81142,-7.24403 -2.18337,-4.22218 -1.92948,-26.25708 0.35393,-30.71721 3.21532,-6.2804 12.11209,-8.83993 19.70279,-5.66833 4.00515,1.67345 6.41484,5.00254 7.22221,9.97775 L 135.05617,111 h -4.42404 c -4.1283,0 -4.48801,-0.21726 -5.38084,-3.25 -0.78459,-2.66505 -1.52446,-3.30511 -4.11074,-3.55619 -5.04688,-0.48997 -6.34606,2.3687 -6.34606,13.9636 0,13.67292 1.58419,16.91672 7.53257,15.42377 1.78193,-0.44724 2.70361,-1.51208 3.12276,-3.60785 0.55082,-2.75408 0.91728,-2.97333 4.96967,-2.97333 3.77703,0 4.375,0.28687 4.375,2.09887 0,3.4769 -3.09945,8.9012 -5.9194,10.35945 -3.66905,1.89734 -8.962,2.55023 -12.87156,1.58773 z m 61.43351,-0.023 c -1.5716,-0.49917 -3.7712,-1.72107 -4.88802,-2.71533 -4.02513,-3.58342 -4.75453,-7.38429 -4.75453,-24.7756 V 97 h 4.5 4.5 v 16.5 c 0,15.16667 0.16162,16.66162 2,18.5 2.49581,2.49581 6.17303,2.57127 8.34501,0.17126 1.40068,-1.54773 1.65499,-4.39054 1.65499,-18.5 V 97 h 4.5 4.5 v 17.09887 c 0,19.01344 -0.90124,22.76446 -6.11761,25.46195 -3.6842,1.90517 -10.60714,2.61608 -14.23984,1.46226 z M 140.79449,119 V 97 h 4.5 4.5 v 18 18 h 7 7 v 4 4 h -11.5 -11.5 z m 64,0 V 97 h 10.86514 c 9.37904,0 11.21563,0.27569 13.42761,2.01564 5.27369,4.14828 5.64001,13.02028 0.72138,17.47157 -1.868,1.69052 -1.84488,1.78433 1.03765,4.20981 2.56674,2.15977 2.94822,3.15214 2.94822,7.66937 0,9.82057 -4.21954,12.63361 -18.95034,12.63361 h -10.04966 z m 19.10837,12.8589 c 0.47355,-0.7474 0.8679,-2.80557 0.87632,-4.57372 C 224.79718,123.51363 222.67242,122 217.36023,122 h -3.56574 v 6.13005 6.13005 l 4.62368,-0.52115 c 2.54303,-0.28664 5.01114,-1.13266 5.48469,-1.88005 z m -0.55132,-19.30562 c 1.37855,-2.10393 1.41576,-2.83947 0.26558,-5.25 -1.10846,-2.32311 -2.06427,-2.85595 -5.5801,-3.11078 l -4.24253,-0.3075 V 109.4425 115 h 3.97695 c 3.1155,0 4.3242,-0.52998 5.5801,-2.44672 z M 256.79449,119 V 97 h 11.1 11.1 l 3.4,3.4 c 3.1295,3.1295 3.4,3.88926 3.4,9.54966 0,10.76801 -4.11161,15.05034 -14.45034,15.05034 h -5.54966 v 8 8 h -4.5 -4.5 z m 17.77749,-2.5567 c 1.64597,-1.15288 2.22251,-2.56112 2.22251,-5.42858 0,-4.95638 -2.07498,-7.01472 -7.07143,-7.01472 h -3.92857 v 6.33333 c 0,3.48334 0.3,6.63334 0.66667,7 1.20559,1.2056 5.84587,0.6964 8.11082,-0.89003 z m 18.9711,3.8067 c 2.95524,-11.4125 5.55665,-21.3125 5.7809,-22 0.27004,-0.82786 2.57589,-1.25 6.82783,-1.25 h 6.4201 l 0.6317,3.36726 c 0.56661,3.0203 8.81948,34.55115 10.17715,38.88274 0.47141,1.50404 -0.14374,1.75 -4.3768,1.75 h -4.92531 l -0.89655,-4.25 -0.89656,-4.25 h -6.49105 -6.49105 l -0.89656,4.25 -0.89655,4.25 h -4.67021 -4.67021 z m 16.26423,3.5 c 0.0244,-2.38216 -3.38146,-15.75 -4.01282,-15.75 -0.63136,0 -4.03724,13.36784 -4.01282,15.75 0.008,0.78953 1.48632,1.25 4.01282,1.25 2.5265,0 4.00472,-0.46047 4.01282,-1.25 z M 329.79449,119 V 97 h 9.59571 c 16.1305,0 19.40534,3.66428 19.40274,21.71016 -0.002,12.38639 -1.35649,16.31905 -6.89633,20.01991 -2.92778,1.95588 -4.69178,2.26993 -12.75,2.26993 h -9.35212 z m 18,12 c 1.73454,-1.73454 2,-3.33333 2,-12.04545 0,-9.33222 -0.17428,-10.21974 -2.45455,-12.5 -1.53143,-1.53144 -3.59988,-2.45455 -5.5,-2.45455 h -3.04545 v 14.5 14.5 h 3.5 c 2.16667,0 4.2619,-0.7619 5.5,-2 z m 18,-12 V 97 h 12 12 v 3.5 3.5 h -7.5 -7.5 v 5.5 5.5 h 6.5 6.5 v 3.5 3.5 h -6.5 -6.5 v 5.5 5.5 h 7.5 7.5 v 4 4 h -12 -12 z m 30,0 V 97 h 4.5 4.5 v 18 18 h 7 7 v 4 4 h -11.5 -11.5 z m -94,-30.762382 c -3.61339,-5.4022 -3.61565,-5.39212 1.13268,-5.05021 3.95196,0.28457 4.55065,0.69354 6.67912,4.56259 l 2.33805,4.25 -3.82493,-0.0124 c -3.29897,-0.0107 -4.16869,-0.52632 -6.32492,-3.75 z"
       id="path2" />
  </g>
</svg>
